<?xml version="1.0" encoding="UTF-8" standalone="no"?>
<!DOCTYPE svg PUBLIC "-//W3C//DTD SVG 1.1//EN"
 "http://www.w3.org/Graphics/SVG/1.1/DTD/svg11.dtd">
<!-- Generated by graphviz version 13.1.2 (20250808.2320)
 -->
<!-- Title: Tree Pages: 1 -->
<svg width="3796pt" height="770pt"
 viewBox="0.00 0.00 3796.00 770.00" xmlns="http://www.w3.org/2000/svg" xmlns:xlink="http://www.w3.org/1999/xlink">
<g id="graph0" class="graph" transform="scale(1 1) rotate(0) translate(4 766)">
<title>Tree</title>
<polygon fill="white" stroke="none" points="-4,4 -4,-766 3792.25,-766 3792.25,4 -4,4"/>
<!-- 0 -->
<g id="node1" class="node">
<title>0</title>
<path fill="#fdf6f1" stroke="black" d="M2043.75,-762C2043.75,-762 1738.25,-762 1738.25,-762 1732.25,-762 1726.25,-756 1726.25,-750 1726.25,-750 1726.25,-687.25 1726.25,-687.25 1726.25,-681.25 1732.25,-675.25 1738.25,-675.25 1738.25,-675.25 2043.75,-675.25 2043.75,-675.25 2049.75,-675.25 2055.75,-681.25 2055.75,-687.25 2055.75,-687.25 2055.75,-750 2055.75,-750 2055.75,-756 2049.75,-762 2043.75,-762"/>
<text xml:space="preserve" text-anchor="start" x="1847.12" y="-744.7" font-family="Helvetica,sans-Serif" font-size="14.00">weight ≤ 75.24</text>
<text xml:space="preserve" text-anchor="start" x="1855.75" y="-728.95" font-family="Helvetica,sans-Serif" font-size="14.00">gini = 0.747</text>
<text xml:space="preserve" text-anchor="start" x="1842.62" y="-713.2" font-family="Helvetica,sans-Serif" font-size="14.00">samples = 3213</text>
<text xml:space="preserve" text-anchor="start" x="1734.25" y="-697.45" font-family="Helvetica,sans-Serif" font-size="14.00">value = [1120.0, 961.0, 469.0, 4.0, 2.0, 305.0, 352.0]</text>
<text xml:space="preserve" text-anchor="start" x="1812.62" y="-681.7" font-family="Helvetica,sans-Serif" font-size="14.00">class = Insufficient Weight</text>
</g>
<!-- 1 -->
<g id="node2" class="node">
<title>1</title>
<path fill="#fceee5" stroke="black" d="M1596.12,-589.25C1596.12,-589.25 1313.88,-589.25 1313.88,-589.25 1307.88,-589.25 1301.88,-583.25 1301.88,-577.25 1301.88,-577.25 1301.88,-514.5 1301.88,-514.5 1301.88,-508.5 1307.88,-502.5 1313.88,-502.5 1313.88,-502.5 1596.12,-502.5 1596.12,-502.5 1602.12,-502.5 1608.12,-508.5 1608.12,-514.5 1608.12,-514.5 1608.12,-577.25 1608.12,-577.25 1608.12,-583.25 1602.12,-589.25 1596.12,-589.25"/>
<text xml:space="preserve" text-anchor="start" x="1407.38" y="-571.95" font-family="Helvetica,sans-Serif" font-size="14.00">weight ≤ 59.995</text>
<text xml:space="preserve" text-anchor="start" x="1419.75" y="-556.2" font-family="Helvetica,sans-Serif" font-size="14.00">gini = 0.589</text>
<text xml:space="preserve" text-anchor="start" x="1406.62" y="-540.45" font-family="Helvetica,sans-Serif" font-size="14.00">samples = 2301</text>
<text xml:space="preserve" text-anchor="start" x="1309.88" y="-524.7" font-family="Helvetica,sans-Serif" font-size="14.00">value = [1119.0, 938.0, 5.0, 0.0, 0.0, 206.0, 33.0]</text>
<text xml:space="preserve" text-anchor="start" x="1376.62" y="-508.95" font-family="Helvetica,sans-Serif" font-size="14.00">class = Insufficient Weight</text>
</g>
<!-- 0&#45;&gt;1 -->
<g id="edge1" class="edge">
<title>0&#45;&gt;1</title>
<path fill="none" stroke="black" d="M1781.54,-674.76C1718.58,-650.1 1639.4,-619.09 1574.78,-593.78"/>
<polygon fill="black" stroke="black" points="1576.12,-590.55 1565.53,-590.16 1573.57,-597.07 1576.12,-590.55"/>
<text xml:space="preserve" text-anchor="middle" x="1574.14" y="-607.09" font-family="Helvetica,sans-Serif" font-size="14.00">True</text>
</g>
<!-- 16 -->
<g id="node17" class="node">
<title>16</title>
<path fill="#cff9d3" stroke="black" d="M2469,-589.25C2469,-589.25 2279,-589.25 2279,-589.25 2273,-589.25 2267,-583.25 2267,-577.25 2267,-577.25 2267,-514.5 2267,-514.5 2267,-508.5 2273,-502.5 2279,-502.5 2279,-502.5 2469,-502.5 2469,-502.5 2475,-502.5 2481,-508.5 2481,-514.5 2481,-514.5 2481,-577.25 2481,-577.25 2481,-583.25 2475,-589.25 2469,-589.25"/>
<text xml:space="preserve" text-anchor="start" x="2326.38" y="-571.95" font-family="Helvetica,sans-Serif" font-size="14.00">weight ≤ 87.478</text>
<text xml:space="preserve" text-anchor="start" x="2338.75" y="-556.2" font-family="Helvetica,sans-Serif" font-size="14.00">gini = 0.606</text>
<text xml:space="preserve" text-anchor="start" x="2329.38" y="-540.45" font-family="Helvetica,sans-Serif" font-size="14.00">samples = 912</text>
<text xml:space="preserve" text-anchor="start" x="2275" y="-524.7" font-family="Helvetica,sans-Serif" font-size="14.00">value = [1, 23, 464, 4, 2, 99, 319]</text>
<text xml:space="preserve" text-anchor="start" x="2305.38" y="-508.95" font-family="Helvetica,sans-Serif" font-size="14.00">class = Obesity Type_I</text>
</g>
<!-- 0&#45;&gt;16 -->
<g id="edge16" class="edge">
<title>0&#45;&gt;16</title>
<path fill="none" stroke="black" d="M2012.26,-674.76C2086.83,-648.39 2181.95,-614.77 2255.93,-588.62"/>
<polygon fill="black" stroke="black" points="2257,-591.95 2265.26,-585.32 2254.66,-585.35 2257,-591.95"/>
<text xml:space="preserve" text-anchor="middle" x="2255.91" y="-601.95" font-family="Helvetica,sans-Serif" font-size="14.00">False</text>
</g>
<!-- 2 -->
<g id="node3" class="node">
<title>2</title>
<path fill="#f2bf9a" stroke="black" d="M818,-416.5C818,-416.5 628,-416.5 628,-416.5 622,-416.5 616,-410.5 616,-404.5 616,-404.5 616,-341.75 616,-341.75 616,-335.75 622,-329.75 628,-329.75 628,-329.75 818,-329.75 818,-329.75 824,-329.75 830,-335.75 830,-341.75 830,-341.75 830,-404.5 830,-404.5 830,-410.5 824,-416.5 818,-416.5"/>
<text xml:space="preserve" text-anchor="start" x="684" y="-399.2" font-family="Helvetica,sans-Serif" font-size="14.00">height ≤ 1.66</text>
<text xml:space="preserve" text-anchor="start" x="687.75" y="-383.45" font-family="Helvetica,sans-Serif" font-size="14.00">gini = 0.458</text>
<text xml:space="preserve" text-anchor="start" x="674.62" y="-367.7" font-family="Helvetica,sans-Serif" font-size="14.00">samples = 1591</text>
<text xml:space="preserve" text-anchor="start" x="624" y="-351.95" font-family="Helvetica,sans-Serif" font-size="14.00">value = [1057, 504, 0, 0, 0, 28, 2]</text>
<text xml:space="preserve" text-anchor="start" x="644.62" y="-336.2" font-family="Helvetica,sans-Serif" font-size="14.00">class = Insufficient Weight</text>
</g>
<!-- 1&#45;&gt;2 -->
<g id="edge2" class="edge">
<title>1&#45;&gt;2</title>
<path fill="none" stroke="black" d="M1301.55,-509.08C1164.51,-477.11 966.63,-430.96 841.46,-401.76"/>
<polygon fill="black" stroke="black" points="842.33,-398.37 831.8,-399.5 840.74,-405.18 842.33,-398.37"/>
</g>
<!-- 9 -->
<g id="node10" class="node">
<title>9</title>
<path fill="#dcf2a0" stroke="black" d="M1589.38,-416.5C1589.38,-416.5 1320.62,-416.5 1320.62,-416.5 1314.62,-416.5 1308.62,-410.5 1308.62,-404.5 1308.62,-404.5 1308.62,-341.75 1308.62,-341.75 1308.62,-335.75 1314.62,-329.75 1320.62,-329.75 1320.62,-329.75 1589.38,-329.75 1589.38,-329.75 1595.38,-329.75 1601.38,-335.75 1601.38,-341.75 1601.38,-341.75 1601.38,-404.5 1601.38,-404.5 1601.38,-410.5 1595.38,-416.5 1589.38,-416.5"/>
<text xml:space="preserve" text-anchor="start" x="1412.25" y="-399.2" font-family="Helvetica,sans-Serif" font-size="14.00">height ≤ 1.629</text>
<text xml:space="preserve" text-anchor="start" x="1419.75" y="-383.45" font-family="Helvetica,sans-Serif" font-size="14.00">gini = 0.554</text>
<text xml:space="preserve" text-anchor="start" x="1410.38" y="-367.7" font-family="Helvetica,sans-Serif" font-size="14.00">samples = 710</text>
<text xml:space="preserve" text-anchor="start" x="1316.62" y="-351.95" font-family="Helvetica,sans-Serif" font-size="14.00">value = [62.0, 434.0, 5.0, 0.0, 0.0, 178.0, 31.0]</text>
<text xml:space="preserve" text-anchor="start" x="1386.75" y="-336.2" font-family="Helvetica,sans-Serif" font-size="14.00">class = Normal Weight</text>
</g>
<!-- 1&#45;&gt;9 -->
<g id="edge9" class="edge">
<title>1&#45;&gt;9</title>
<path fill="none" stroke="black" d="M1455,-502.23C1455,-479.82 1455,-452.11 1455,-428.21"/>
<polygon fill="black" stroke="black" points="1458.5,-428.33 1455,-418.33 1451.5,-428.33 1458.5,-428.33"/>
</g>
<!-- 3 -->
<g id="node4" class="node">
<title>3</title>
<path fill="#d4ef88" stroke="black" d="M457.62,-243.75C457.62,-243.75 196.38,-243.75 196.38,-243.75 190.38,-243.75 184.38,-237.75 184.38,-231.75 184.38,-231.75 184.38,-169 184.38,-169 184.38,-163 190.38,-157 196.38,-157 196.38,-157 457.62,-157 457.62,-157 463.62,-157 469.62,-163 469.62,-169 469.62,-169 469.62,-231.75 469.62,-231.75 469.62,-237.75 463.62,-243.75 457.62,-243.75"/>
<text xml:space="preserve" text-anchor="start" x="286.88" y="-226.45" font-family="Helvetica,sans-Serif" font-size="14.00">weight ≤ 46.0</text>
<text xml:space="preserve" text-anchor="start" x="291.75" y="-210.7" font-family="Helvetica,sans-Serif" font-size="14.00">gini = 0.441</text>
<text xml:space="preserve" text-anchor="start" x="282.75" y="-194.95" font-family="Helvetica,sans-Serif" font-size="14.00">samples = 611</text>
<text xml:space="preserve" text-anchor="start" x="192.38" y="-179.2" font-family="Helvetica,sans-Serif" font-size="14.00">value = [155.0, 429.0, 0.0, 0.0, 0.0, 25.0, 2.0]</text>
<text xml:space="preserve" text-anchor="start" x="258.75" y="-163.45" font-family="Helvetica,sans-Serif" font-size="14.00">class = Normal Weight</text>
</g>
<!-- 2&#45;&gt;3 -->
<g id="edge3" class="edge">
<title>2&#45;&gt;3</title>
<path fill="none" stroke="black" d="M623.58,-329.26C566.63,-304.7 495.07,-273.85 436.52,-248.6"/>
<polygon fill="black" stroke="black" points="438.07,-245.46 427.5,-244.71 435.3,-251.88 438.07,-245.46"/>
</g>
<!-- 6 -->
<g id="node7" class="node">
<title>6</title>
<path fill="#e78c4a" stroke="black" d="M806.75,-243.75C806.75,-243.75 639.25,-243.75 639.25,-243.75 633.25,-243.75 627.25,-237.75 627.25,-231.75 627.25,-231.75 627.25,-169 627.25,-169 627.25,-163 633.25,-157 639.25,-157 639.25,-157 806.75,-157 806.75,-157 812.75,-157 818.75,-163 818.75,-169 818.75,-169 818.75,-231.75 818.75,-231.75 818.75,-237.75 812.75,-243.75 806.75,-243.75"/>
<text xml:space="preserve" text-anchor="start" x="675.38" y="-226.45" font-family="Helvetica,sans-Serif" font-size="14.00">weight ≤ 54.994</text>
<text xml:space="preserve" text-anchor="start" x="687.75" y="-210.7" font-family="Helvetica,sans-Serif" font-size="14.00">gini = 0.147</text>
<text xml:space="preserve" text-anchor="start" x="678.38" y="-194.95" font-family="Helvetica,sans-Serif" font-size="14.00">samples = 980</text>
<text xml:space="preserve" text-anchor="start" x="635.25" y="-179.2" font-family="Helvetica,sans-Serif" font-size="14.00">value = [902, 75, 0, 0, 0, 3, 0]</text>
<text xml:space="preserve" text-anchor="start" x="644.62" y="-163.45" font-family="Helvetica,sans-Serif" font-size="14.00">class = Insufficient Weight</text>
</g>
<!-- 2&#45;&gt;6 -->
<g id="edge6" class="edge">
<title>2&#45;&gt;6</title>
<path fill="none" stroke="black" d="M723,-329.48C723,-307.07 723,-279.36 723,-255.46"/>
<polygon fill="black" stroke="black" points="726.5,-255.58 723,-245.58 719.5,-255.58 726.5,-255.58"/>
</g>
<!-- 4 -->
<g id="node5" class="node">
<title>4</title>
<path fill="#e9965a" stroke="black" d="M172,-71C172,-71 12,-71 12,-71 6,-71 0,-65 0,-59 0,-59 0,-12 0,-12 0,-6 6,0 12,0 12,0 172,0 172,0 178,0 184,-6 184,-12 184,-12 184,-59 184,-59 184,-65 178,-71 172,-71"/>
<text xml:space="preserve" text-anchor="start" x="56.75" y="-53.7" font-family="Helvetica,sans-Serif" font-size="14.00">gini = 0.249</text>
<text xml:space="preserve" text-anchor="start" x="47.38" y="-37.95" font-family="Helvetica,sans-Serif" font-size="14.00">samples = 104</text>
<text xml:space="preserve" text-anchor="start" x="8" y="-22.2" font-family="Helvetica,sans-Serif" font-size="14.00">value = [89, 14, 0, 0, 0, 1, 0]</text>
<text xml:space="preserve" text-anchor="start" x="13.62" y="-6.45" font-family="Helvetica,sans-Serif" font-size="14.00">class = Insufficient Weight</text>
</g>
<!-- 3&#45;&gt;4 -->
<g id="edge4" class="edge">
<title>3&#45;&gt;4</title>
<path fill="none" stroke="black" d="M265.26,-156.58C230.05,-132.18 186.16,-101.76 151.36,-77.64"/>
<polygon fill="black" stroke="black" points="153.72,-75.02 143.5,-72.2 149.73,-80.77 153.72,-75.02"/>
</g>
<!-- 5 -->
<g id="node6" class="node">
<title>5</title>
<path fill="#c6ea62" stroke="black" d="M414.5,-71C414.5,-71 239.5,-71 239.5,-71 233.5,-71 227.5,-65 227.5,-59 227.5,-59 227.5,-12 227.5,-12 227.5,-6 233.5,0 239.5,0 239.5,0 414.5,0 414.5,0 420.5,0 426.5,-6 426.5,-12 426.5,-12 426.5,-59 426.5,-59 426.5,-65 420.5,-71 414.5,-71"/>
<text xml:space="preserve" text-anchor="start" x="292.12" y="-53.7" font-family="Helvetica,sans-Serif" font-size="14.00">gini = 0.311</text>
<text xml:space="preserve" text-anchor="start" x="282.38" y="-37.95" font-family="Helvetica,sans-Serif" font-size="14.00">samples = 507</text>
<text xml:space="preserve" text-anchor="start" x="235.5" y="-22.2" font-family="Helvetica,sans-Serif" font-size="14.00">value = [66, 415, 0, 0, 0, 24, 2]</text>
<text xml:space="preserve" text-anchor="start" x="258.75" y="-6.45" font-family="Helvetica,sans-Serif" font-size="14.00">class = Normal Weight</text>
</g>
<!-- 3&#45;&gt;5 -->
<g id="edge5" class="edge">
<title>3&#45;&gt;5</title>
<path fill="none" stroke="black" d="M327,-156.58C327,-133.84 327,-105.87 327,-82.65"/>
<polygon fill="black" stroke="black" points="330.5,-82.85 327,-72.85 323.5,-82.85 330.5,-82.85"/>
</g>
<!-- 7 -->
<g id="node8" class="node">
<title>7</title>
<path fill="#e68540" stroke="black" d="M648.75,-71C648.75,-71 481.25,-71 481.25,-71 475.25,-71 469.25,-65 469.25,-59 469.25,-59 469.25,-12 469.25,-12 469.25,-6 475.25,0 481.25,0 481.25,0 648.75,0 648.75,0 654.75,0 660.75,-6 660.75,-12 660.75,-12 660.75,-59 660.75,-59 660.75,-65 654.75,-71 648.75,-71"/>
<text xml:space="preserve" text-anchor="start" x="529.75" y="-53.7" font-family="Helvetica,sans-Serif" font-size="14.00">gini = 0.062</text>
<text xml:space="preserve" text-anchor="start" x="520.38" y="-37.95" font-family="Helvetica,sans-Serif" font-size="14.00">samples = 658</text>
<text xml:space="preserve" text-anchor="start" x="477.25" y="-22.2" font-family="Helvetica,sans-Serif" font-size="14.00">value = [637, 20, 0, 0, 0, 1, 0]</text>
<text xml:space="preserve" text-anchor="start" x="486.62" y="-6.45" font-family="Helvetica,sans-Serif" font-size="14.00">class = Insufficient Weight</text>
</g>
<!-- 6&#45;&gt;7 -->
<g id="edge7" class="edge">
<title>6&#45;&gt;7</title>
<path fill="none" stroke="black" d="M681.49,-156.58C658.42,-132.81 629.81,-103.31 606.71,-79.5"/>
<polygon fill="black" stroke="black" points="609.32,-77.16 599.85,-72.42 604.3,-82.04 609.32,-77.16"/>
</g>
<!-- 8 -->
<g id="node9" class="node">
<title>8</title>
<path fill="#eb9c63" stroke="black" d="M962.12,-71C962.12,-71 715.88,-71 715.88,-71 709.88,-71 703.88,-65 703.88,-59 703.88,-59 703.88,-12 703.88,-12 703.88,-6 709.88,0 715.88,0 715.88,0 962.12,0 962.12,0 968.12,0 974.12,-6 974.12,-12 974.12,-12 974.12,-59 974.12,-59 974.12,-65 968.12,-71 962.12,-71"/>
<text xml:space="preserve" text-anchor="start" x="803.75" y="-53.7" font-family="Helvetica,sans-Serif" font-size="14.00">gini = 0.293</text>
<text xml:space="preserve" text-anchor="start" x="794.38" y="-37.95" font-family="Helvetica,sans-Serif" font-size="14.00">samples = 322</text>
<text xml:space="preserve" text-anchor="start" x="711.88" y="-22.2" font-family="Helvetica,sans-Serif" font-size="14.00">value = [265.0, 55.0, 0.0, 0.0, 0.0, 2.0, 0.0]</text>
<text xml:space="preserve" text-anchor="start" x="760.62" y="-6.45" font-family="Helvetica,sans-Serif" font-size="14.00">class = Insufficient Weight</text>
</g>
<!-- 6&#45;&gt;8 -->
<g id="edge8" class="edge">
<title>6&#45;&gt;8</title>
<path fill="none" stroke="black" d="M753.48,-156.58C770.19,-133.12 790.87,-104.08 807.71,-80.44"/>
<polygon fill="black" stroke="black" points="810.36,-82.74 813.31,-72.57 804.66,-78.68 810.36,-82.74"/>
</g>
<!-- 10 -->
<g id="node11" class="node">
<title>10</title>
<path fill="#dba5f3" stroke="black" d="M1421.12,-243.75C1421.12,-243.75 1246.88,-243.75 1246.88,-243.75 1240.88,-243.75 1234.88,-237.75 1234.88,-231.75 1234.88,-231.75 1234.88,-169 1234.88,-169 1234.88,-163 1240.88,-157 1246.88,-157 1246.88,-157 1421.12,-157 1421.12,-157 1427.12,-157 1433.12,-163 1433.12,-169 1433.12,-169 1433.12,-231.75 1433.12,-231.75 1433.12,-237.75 1427.12,-243.75 1421.12,-243.75"/>
<text xml:space="preserve" text-anchor="start" x="1286.38" y="-226.45" font-family="Helvetica,sans-Serif" font-size="14.00">weight ≤ 64.348</text>
<text xml:space="preserve" text-anchor="start" x="1298.75" y="-210.7" font-family="Helvetica,sans-Serif" font-size="14.00">gini = 0.554</text>
<text xml:space="preserve" text-anchor="start" x="1289.38" y="-194.95" font-family="Helvetica,sans-Serif" font-size="14.00">samples = 188</text>
<text xml:space="preserve" text-anchor="start" x="1242.88" y="-179.2" font-family="Helvetica,sans-Serif" font-size="14.00">value = [1, 50, 2, 0, 0, 113, 22]</text>
<text xml:space="preserve" text-anchor="start" x="1252.62" y="-163.45" font-family="Helvetica,sans-Serif" font-size="14.00">class = Overweight Level_I</text>
</g>
<!-- 9&#45;&gt;10 -->
<g id="edge10" class="edge">
<title>9&#45;&gt;10</title>
<path fill="none" stroke="black" d="M1424.78,-329.48C1408.39,-306.35 1388.01,-277.6 1370.72,-253.19"/>
<polygon fill="black" stroke="black" points="1373.77,-251.44 1365.13,-245.3 1368.06,-255.49 1373.77,-251.44"/>
</g>
<!-- 13 -->
<g id="node14" class="node">
<title>13</title>
<path fill="#cded75" stroke="black" d="M1663.5,-243.75C1663.5,-243.75 1488.5,-243.75 1488.5,-243.75 1482.5,-243.75 1476.5,-237.75 1476.5,-231.75 1476.5,-231.75 1476.5,-169 1476.5,-169 1476.5,-163 1482.5,-157 1488.5,-157 1488.5,-157 1663.5,-157 1663.5,-157 1669.5,-157 1675.5,-163 1675.5,-169 1675.5,-169 1675.5,-231.75 1675.5,-231.75 1675.5,-237.75 1669.5,-243.75 1663.5,-243.75"/>
<text xml:space="preserve" text-anchor="start" x="1533.25" y="-226.45" font-family="Helvetica,sans-Serif" font-size="14.00">height ≤ 1.835</text>
<text xml:space="preserve" text-anchor="start" x="1540.75" y="-210.7" font-family="Helvetica,sans-Serif" font-size="14.00">gini = 0.429</text>
<text xml:space="preserve" text-anchor="start" x="1531.38" y="-194.95" font-family="Helvetica,sans-Serif" font-size="14.00">samples = 522</text>
<text xml:space="preserve" text-anchor="start" x="1484.5" y="-179.2" font-family="Helvetica,sans-Serif" font-size="14.00">value = [61, 384, 3, 0, 0, 65, 9]</text>
<text xml:space="preserve" text-anchor="start" x="1507.75" y="-163.45" font-family="Helvetica,sans-Serif" font-size="14.00">class = Normal Weight</text>
</g>
<!-- 9&#45;&gt;13 -->
<g id="edge13" class="edge">
<title>9&#45;&gt;13</title>
<path fill="none" stroke="black" d="M1485.22,-329.48C1501.61,-306.35 1521.99,-277.6 1539.28,-253.19"/>
<polygon fill="black" stroke="black" points="1541.94,-255.49 1544.87,-245.3 1536.23,-251.44 1541.94,-255.49"/>
</g>
<!-- 11 -->
<g id="node12" class="node">
<title>11</title>
<path fill="#bce748" stroke="black" d="M1181.25,-71C1181.25,-71 1028.75,-71 1028.75,-71 1022.75,-71 1016.75,-65 1016.75,-59 1016.75,-59 1016.75,-12 1016.75,-12 1016.75,-6 1022.75,0 1028.75,0 1028.75,0 1181.25,0 1181.25,0 1187.25,0 1193.25,-6 1193.25,-12 1193.25,-12 1193.25,-59 1193.25,-59 1193.25,-65 1187.25,-71 1181.25,-71"/>
<text xml:space="preserve" text-anchor="start" x="1069.75" y="-53.7" font-family="Helvetica,sans-Serif" font-size="14.00">gini = 0.135</text>
<text xml:space="preserve" text-anchor="start" x="1064.12" y="-37.95" font-family="Helvetica,sans-Serif" font-size="14.00">samples = 42</text>
<text xml:space="preserve" text-anchor="start" x="1024.75" y="-22.2" font-family="Helvetica,sans-Serif" font-size="14.00">value = [1, 39, 0, 0, 0, 2, 0]</text>
<text xml:space="preserve" text-anchor="start" x="1036.75" y="-6.45" font-family="Helvetica,sans-Serif" font-size="14.00">class = Normal Weight</text>
</g>
<!-- 10&#45;&gt;11 -->
<g id="edge11" class="edge">
<title>10&#45;&gt;11</title>
<path fill="none" stroke="black" d="M1273.83,-156.58C1239.67,-132.29 1197.12,-102.02 1163.28,-77.95"/>
<polygon fill="black" stroke="black" points="1165.39,-75.16 1155.21,-72.21 1161.33,-80.86 1165.39,-75.16"/>
</g>
<!-- 12 -->
<g id="node13" class="node">
<title>12</title>
<path fill="#c771ec" stroke="black" d="M1421.38,-71C1421.38,-71 1248.62,-71 1248.62,-71 1242.62,-71 1236.62,-65 1236.62,-59 1236.62,-59 1236.62,-12 1236.62,-12 1236.62,-6 1242.62,0 1248.62,0 1248.62,0 1421.38,0 1421.38,0 1427.38,0 1433.38,-6 1433.38,-12 1433.38,-12 1433.38,-59 1433.38,-59 1433.38,-65 1427.38,-71 1421.38,-71"/>
<text xml:space="preserve" text-anchor="start" x="1299.75" y="-53.7" font-family="Helvetica,sans-Serif" font-size="14.00">gini = 0.393</text>
<text xml:space="preserve" text-anchor="start" x="1290.38" y="-37.95" font-family="Helvetica,sans-Serif" font-size="14.00">samples = 146</text>
<text xml:space="preserve" text-anchor="start" x="1244.62" y="-22.2" font-family="Helvetica,sans-Serif" font-size="14.00">value = [0, 11, 2, 0, 0, 111, 22]</text>
<text xml:space="preserve" text-anchor="start" x="1253.62" y="-6.45" font-family="Helvetica,sans-Serif" font-size="14.00">class = Overweight Level_I</text>
</g>
<!-- 10&#45;&gt;12 -->
<g id="edge12" class="edge">
<title>10&#45;&gt;12</title>
<path fill="none" stroke="black" d="M1334.26,-156.58C1334.4,-133.84 1334.57,-105.87 1334.72,-82.65"/>
<polygon fill="black" stroke="black" points="1338.22,-82.87 1334.78,-72.85 1331.22,-82.83 1338.22,-82.87"/>
</g>
<!-- 14 -->
<g id="node15" class="node">
<title>14</title>
<path fill="#c9ec6b" stroke="black" d="M1663.5,-71C1663.5,-71 1488.5,-71 1488.5,-71 1482.5,-71 1476.5,-65 1476.5,-59 1476.5,-59 1476.5,-12 1476.5,-12 1476.5,-6 1482.5,0 1488.5,0 1488.5,0 1663.5,0 1663.5,0 1669.5,0 1675.5,-6 1675.5,-12 1675.5,-12 1675.5,-59 1675.5,-59 1675.5,-65 1669.5,-71 1663.5,-71"/>
<text xml:space="preserve" text-anchor="start" x="1540.75" y="-53.7" font-family="Helvetica,sans-Serif" font-size="14.00">gini = 0.365</text>
<text xml:space="preserve" text-anchor="start" x="1531.38" y="-37.95" font-family="Helvetica,sans-Serif" font-size="14.00">samples = 470</text>
<text xml:space="preserve" text-anchor="start" x="1484.5" y="-22.2" font-family="Helvetica,sans-Serif" font-size="14.00">value = [27, 368, 3, 0, 0, 63, 9]</text>
<text xml:space="preserve" text-anchor="start" x="1507.75" y="-6.45" font-family="Helvetica,sans-Serif" font-size="14.00">class = Normal Weight</text>
</g>
<!-- 13&#45;&gt;14 -->
<g id="edge14" class="edge">
<title>13&#45;&gt;14</title>
<path fill="none" stroke="black" d="M1576,-156.58C1576,-133.84 1576,-105.87 1576,-82.65"/>
<polygon fill="black" stroke="black" points="1579.5,-82.85 1576,-72.85 1572.5,-82.85 1579.5,-82.85"/>
</g>
<!-- 15 -->
<g id="node16" class="node">
<title>15</title>
<path fill="#f2c09c" stroke="black" d="M1891,-71C1891,-71 1731,-71 1731,-71 1725,-71 1719,-65 1719,-59 1719,-59 1719,-12 1719,-12 1719,-6 1725,0 1731,0 1731,0 1891,0 1891,0 1897,0 1903,-6 1903,-12 1903,-12 1903,-59 1903,-59 1903,-65 1897,-71 1891,-71"/>
<text xml:space="preserve" text-anchor="start" x="1775.75" y="-53.7" font-family="Helvetica,sans-Serif" font-size="14.00">gini = 0.476</text>
<text xml:space="preserve" text-anchor="start" x="1770.12" y="-37.95" font-family="Helvetica,sans-Serif" font-size="14.00">samples = 52</text>
<text xml:space="preserve" text-anchor="start" x="1727" y="-22.2" font-family="Helvetica,sans-Serif" font-size="14.00">value = [34, 16, 0, 0, 0, 2, 0]</text>
<text xml:space="preserve" text-anchor="start" x="1732.62" y="-6.45" font-family="Helvetica,sans-Serif" font-size="14.00">class = Insufficient Weight</text>
</g>
<!-- 13&#45;&gt;15 -->
<g id="edge15" class="edge">
<title>13&#45;&gt;15</title>
<path fill="none" stroke="black" d="M1637.74,-156.58C1672.95,-132.18 1716.84,-101.76 1751.64,-77.64"/>
<polygon fill="black" stroke="black" points="1753.27,-80.77 1759.5,-72.2 1749.28,-75.02 1753.27,-80.77"/>
</g>
<!-- 17 -->
<g id="node18" class="node">
<title>17</title>
<path fill="#f5b5d2" stroke="black" d="M2469,-416.5C2469,-416.5 2279,-416.5 2279,-416.5 2273,-416.5 2267,-410.5 2267,-404.5 2267,-404.5 2267,-341.75 2267,-341.75 2267,-335.75 2273,-329.75 2279,-329.75 2279,-329.75 2469,-329.75 2469,-329.75 2475,-329.75 2481,-335.75 2481,-341.75 2481,-341.75 2481,-404.5 2481,-404.5 2481,-410.5 2475,-416.5 2469,-416.5"/>
<text xml:space="preserve" text-anchor="start" x="2335" y="-399.2" font-family="Helvetica,sans-Serif" font-size="14.00">height ≤ 1.67</text>
<text xml:space="preserve" text-anchor="start" x="2342.5" y="-383.45" font-family="Helvetica,sans-Serif" font-size="14.00">gini = 0.63</text>
<text xml:space="preserve" text-anchor="start" x="2329.38" y="-367.7" font-family="Helvetica,sans-Serif" font-size="14.00">samples = 515</text>
<text xml:space="preserve" text-anchor="start" x="2275" y="-351.95" font-family="Helvetica,sans-Serif" font-size="14.00">value = [1, 23, 125, 1, 0, 95, 270]</text>
<text xml:space="preserve" text-anchor="start" x="2290.75" y="-336.2" font-family="Helvetica,sans-Serif" font-size="14.00">class = Overweight Level_II</text>
</g>
<!-- 16&#45;&gt;17 -->
<g id="edge17" class="edge">
<title>16&#45;&gt;17</title>
<path fill="none" stroke="black" d="M2374,-502.23C2374,-479.82 2374,-452.11 2374,-428.21"/>
<polygon fill="black" stroke="black" points="2377.5,-428.33 2374,-418.33 2370.5,-428.33 2377.5,-428.33"/>
</g>
<!-- 24 -->
<g id="node25" class="node">
<title>24</title>
<path fill="#5ae96b" stroke="black" d="M3204.75,-416.5C3204.75,-416.5 3037.25,-416.5 3037.25,-416.5 3031.25,-416.5 3025.25,-410.5 3025.25,-404.5 3025.25,-404.5 3025.25,-341.75 3025.25,-341.75 3025.25,-335.75 3031.25,-329.75 3037.25,-329.75 3037.25,-329.75 3204.75,-329.75 3204.75,-329.75 3210.75,-329.75 3216.75,-335.75 3216.75,-341.75 3216.75,-341.75 3216.75,-404.5 3216.75,-404.5 3216.75,-410.5 3210.75,-416.5 3204.75,-416.5"/>
<text xml:space="preserve" text-anchor="start" x="3081.62" y="-399.2" font-family="Helvetica,sans-Serif" font-size="14.00">age ≤ 17.995</text>
<text xml:space="preserve" text-anchor="start" x="3085.75" y="-383.45" font-family="Helvetica,sans-Serif" font-size="14.00">gini = 0.255</text>
<text xml:space="preserve" text-anchor="start" x="3076.38" y="-367.7" font-family="Helvetica,sans-Serif" font-size="14.00">samples = 397</text>
<text xml:space="preserve" text-anchor="start" x="3033.25" y="-351.95" font-family="Helvetica,sans-Serif" font-size="14.00">value = [0, 0, 339, 3, 2, 4, 49]</text>
<text xml:space="preserve" text-anchor="start" x="3052.38" y="-336.2" font-family="Helvetica,sans-Serif" font-size="14.00">class = Obesity Type_I</text>
</g>
<!-- 16&#45;&gt;24 -->
<g id="edge24" class="edge">
<title>16&#45;&gt;24</title>
<path fill="none" stroke="black" d="M2481.42,-520.32C2623.47,-487.85 2872.31,-430.97 3014.1,-398.56"/>
<polygon fill="black" stroke="black" points="3014.51,-402.06 3023.48,-396.42 3012.95,-395.23 3014.51,-402.06"/>
</g>
<!-- 18 -->
<g id="node19" class="node">
<title>18</title>
<path fill="#70ec7e" stroke="black" d="M2317.75,-243.75C2317.75,-243.75 2150.25,-243.75 2150.25,-243.75 2144.25,-243.75 2138.25,-237.75 2138.25,-231.75 2138.25,-231.75 2138.25,-169 2138.25,-169 2138.25,-163 2144.25,-157 2150.25,-157 2150.25,-157 2317.75,-157 2317.75,-157 2323.75,-157 2329.75,-163 2329.75,-169 2329.75,-169 2329.75,-231.75 2329.75,-231.75 2329.75,-237.75 2323.75,-243.75 2317.75,-243.75"/>
<text xml:space="preserve" text-anchor="start" x="2193.88" y="-226.45" font-family="Helvetica,sans-Serif" font-size="14.00">weight ≤ 81.0</text>
<text xml:space="preserve" text-anchor="start" x="2198.75" y="-210.7" font-family="Helvetica,sans-Serif" font-size="14.00">gini = 0.363</text>
<text xml:space="preserve" text-anchor="start" x="2189.38" y="-194.95" font-family="Helvetica,sans-Serif" font-size="14.00">samples = 138</text>
<text xml:space="preserve" text-anchor="start" x="2146.25" y="-179.2" font-family="Helvetica,sans-Serif" font-size="14.00">value = [0, 3, 107, 1, 0, 1, 26]</text>
<text xml:space="preserve" text-anchor="start" x="2165.38" y="-163.45" font-family="Helvetica,sans-Serif" font-size="14.00">class = Obesity Type_I</text>
</g>
<!-- 17&#45;&gt;18 -->
<g id="edge18" class="edge">
<title>17&#45;&gt;18</title>
<path fill="none" stroke="black" d="M2339.03,-329.48C2319.99,-306.25 2296.29,-277.34 2276.22,-252.87"/>
<polygon fill="black" stroke="black" points="2279.01,-250.75 2269.97,-245.24 2273.6,-255.19 2279.01,-250.75"/>
</g>
<!-- 21 -->
<g id="node22" class="node">
<title>21</title>
<path fill="#f196bf" stroke="black" d="M2645.62,-243.75C2645.62,-243.75 2384.38,-243.75 2384.38,-243.75 2378.38,-243.75 2372.38,-237.75 2372.38,-231.75 2372.38,-231.75 2372.38,-169 2372.38,-169 2372.38,-163 2378.38,-157 2384.38,-157 2384.38,-157 2645.62,-157 2645.62,-157 2651.62,-157 2657.62,-163 2657.62,-169 2657.62,-169 2657.62,-231.75 2657.62,-231.75 2657.62,-237.75 2651.62,-243.75 2645.62,-243.75"/>
<text xml:space="preserve" text-anchor="start" x="2472.25" y="-226.45" font-family="Helvetica,sans-Serif" font-size="14.00">height ≤ 1.746</text>
<text xml:space="preserve" text-anchor="start" x="2479.75" y="-210.7" font-family="Helvetica,sans-Serif" font-size="14.00">gini = 0.514</text>
<text xml:space="preserve" text-anchor="start" x="2470.38" y="-194.95" font-family="Helvetica,sans-Serif" font-size="14.00">samples = 377</text>
<text xml:space="preserve" text-anchor="start" x="2380.38" y="-179.2" font-family="Helvetica,sans-Serif" font-size="14.00">value = [1.0, 20.0, 18.0, 0.0, 0.0, 94.0, 244.0]</text>
<text xml:space="preserve" text-anchor="start" x="2431.75" y="-163.45" font-family="Helvetica,sans-Serif" font-size="14.00">class = Overweight Level_II</text>
</g>
<!-- 17&#45;&gt;21 -->
<g id="edge21" class="edge">
<title>17&#45;&gt;21</title>
<path fill="none" stroke="black" d="M2409.22,-329.48C2428.4,-306.25 2452.27,-277.34 2472.48,-252.87"/>
<polygon fill="black" stroke="black" points="2475.11,-255.18 2478.78,-245.24 2469.71,-250.72 2475.11,-255.18"/>
</g>
<!-- 19 -->
<g id="node20" class="node">
<title>19</title>
<path fill="#fad9e8" stroke="black" d="M2118,-71C2118,-71 1958,-71 1958,-71 1952,-71 1946,-65 1946,-59 1946,-59 1946,-12 1946,-12 1946,-6 1952,0 1958,0 1958,0 2118,0 2118,0 2124,0 2130,-6 2130,-12 2130,-12 2130,-59 2130,-59 2130,-65 2124,-71 2118,-71"/>
<text xml:space="preserve" text-anchor="start" x="2002.75" y="-53.7" font-family="Helvetica,sans-Serif" font-size="14.00">gini = 0.595</text>
<text xml:space="preserve" text-anchor="start" x="1997.12" y="-37.95" font-family="Helvetica,sans-Serif" font-size="14.00">samples = 34</text>
<text xml:space="preserve" text-anchor="start" x="1954" y="-22.2" font-family="Helvetica,sans-Serif" font-size="14.00">value = [0, 3, 13, 0, 0, 1, 17]</text>
<text xml:space="preserve" text-anchor="start" x="1954.75" y="-6.45" font-family="Helvetica,sans-Serif" font-size="14.00">class = Overweight Level_II</text>
</g>
<!-- 18&#45;&gt;19 -->
<g id="edge19" class="edge">
<title>18&#45;&gt;19</title>
<path fill="none" stroke="black" d="M2182.5,-156.58C2153.52,-132.49 2117.47,-102.54 2088.62,-78.57"/>
<polygon fill="black" stroke="black" points="2091.01,-76 2081.08,-72.3 2086.54,-81.39 2091.01,-76"/>
</g>
<!-- 20 -->
<g id="node21" class="node">
<title>20</title>
<path fill="#4ee860" stroke="black" d="M2337.25,-71C2337.25,-71 2184.75,-71 2184.75,-71 2178.75,-71 2172.75,-65 2172.75,-59 2172.75,-59 2172.75,-12 2172.75,-12 2172.75,-6 2178.75,0 2184.75,0 2184.75,0 2337.25,0 2337.25,0 2343.25,0 2349.25,-6 2349.25,-12 2349.25,-12 2349.25,-59 2349.25,-59 2349.25,-65 2343.25,-71 2337.25,-71"/>
<text xml:space="preserve" text-anchor="start" x="2225.75" y="-53.7" font-family="Helvetica,sans-Serif" font-size="14.00">gini = 0.175</text>
<text xml:space="preserve" text-anchor="start" x="2216.38" y="-37.95" font-family="Helvetica,sans-Serif" font-size="14.00">samples = 104</text>
<text xml:space="preserve" text-anchor="start" x="2180.75" y="-22.2" font-family="Helvetica,sans-Serif" font-size="14.00">value = [0, 0, 94, 1, 0, 0, 9]</text>
<text xml:space="preserve" text-anchor="start" x="2192.38" y="-6.45" font-family="Helvetica,sans-Serif" font-size="14.00">class = Obesity Type_I</text>
</g>
<!-- 18&#45;&gt;20 -->
<g id="edge20" class="edge">
<title>18&#45;&gt;20</title>
<path fill="none" stroke="black" d="M2241.09,-156.58C2244.86,-133.84 2249.5,-105.87 2253.35,-82.65"/>
<polygon fill="black" stroke="black" points="2256.8,-83.27 2254.98,-72.83 2249.89,-82.12 2256.8,-83.27"/>
</g>
<!-- 22 -->
<g id="node23" class="node">
<title>22</title>
<path fill="#e95a9a" stroke="black" d="M2571.75,-71C2571.75,-71 2404.25,-71 2404.25,-71 2398.25,-71 2392.25,-65 2392.25,-59 2392.25,-59 2392.25,-12 2392.25,-12 2392.25,-6 2398.25,0 2404.25,0 2404.25,0 2571.75,0 2571.75,0 2577.75,0 2583.75,-6 2583.75,-12 2583.75,-12 2583.75,-59 2583.75,-59 2583.75,-65 2577.75,-71 2571.75,-71"/>
<text xml:space="preserve" text-anchor="start" x="2452.75" y="-53.7" font-family="Helvetica,sans-Serif" font-size="14.00">gini = 0.268</text>
<text xml:space="preserve" text-anchor="start" x="2443.38" y="-37.95" font-family="Helvetica,sans-Serif" font-size="14.00">samples = 218</text>
<text xml:space="preserve" text-anchor="start" x="2400.25" y="-22.2" font-family="Helvetica,sans-Serif" font-size="14.00">value = [0, 2, 9, 0, 0, 22, 185]</text>
<text xml:space="preserve" text-anchor="start" x="2404.75" y="-6.45" font-family="Helvetica,sans-Serif" font-size="14.00">class = Overweight Level_II</text>
</g>
<!-- 21&#45;&gt;22 -->
<g id="edge22" class="edge">
<title>21&#45;&gt;22</title>
<path fill="none" stroke="black" d="M2507.91,-156.58C2504.14,-133.84 2499.5,-105.87 2495.65,-82.65"/>
<polygon fill="black" stroke="black" points="2499.11,-82.12 2494.02,-72.83 2492.2,-83.27 2499.11,-82.12"/>
</g>
<!-- 23 -->
<g id="node24" class="node">
<title>23</title>
<path fill="#f5e5fc" stroke="black" d="M2885.12,-71C2885.12,-71 2638.88,-71 2638.88,-71 2632.88,-71 2626.88,-65 2626.88,-59 2626.88,-59 2626.88,-12 2626.88,-12 2626.88,-6 2632.88,0 2638.88,0 2638.88,0 2885.12,0 2885.12,0 2891.12,0 2897.12,-6 2897.12,-12 2897.12,-12 2897.12,-59 2897.12,-59 2897.12,-65 2891.12,-71 2885.12,-71"/>
<text xml:space="preserve" text-anchor="start" x="2726.75" y="-53.7" font-family="Helvetica,sans-Serif" font-size="14.00">gini = 0.641</text>
<text xml:space="preserve" text-anchor="start" x="2717.38" y="-37.95" font-family="Helvetica,sans-Serif" font-size="14.00">samples = 159</text>
<text xml:space="preserve" text-anchor="start" x="2634.88" y="-22.2" font-family="Helvetica,sans-Serif" font-size="14.00">value = [1.0, 18.0, 9.0, 0.0, 0.0, 72.0, 59.0]</text>
<text xml:space="preserve" text-anchor="start" x="2680.62" y="-6.45" font-family="Helvetica,sans-Serif" font-size="14.00">class = Overweight Level_I</text>
</g>
<!-- 21&#45;&gt;23 -->
<g id="edge23" class="edge">
<title>21&#45;&gt;23</title>
<path fill="none" stroke="black" d="M2579.9,-156.58C2616.9,-132.18 2663.03,-101.76 2699.61,-77.64"/>
<polygon fill="black" stroke="black" points="2701.49,-80.59 2707.91,-72.17 2697.63,-74.75 2701.49,-80.59"/>
</g>
<!-- 25 -->
<g id="node26" class="node">
<title>25</title>
<path fill="#d6fada" stroke="black" d="M3240.38,-243.75C3240.38,-243.75 3001.62,-243.75 3001.62,-243.75 2995.62,-243.75 2989.62,-237.75 2989.62,-231.75 2989.62,-231.75 2989.62,-169 2989.62,-169 2989.62,-163 2995.62,-157 3001.62,-157 3001.62,-157 3240.38,-157 3240.38,-157 3246.38,-157 3252.38,-163 3252.38,-169 3252.38,-169 3252.38,-231.75 3252.38,-231.75 3252.38,-237.75 3246.38,-243.75 3240.38,-243.75"/>
<text xml:space="preserve" text-anchor="start" x="3073.38" y="-226.45" font-family="Helvetica,sans-Serif" font-size="14.00">weight ≤ 97.107</text>
<text xml:space="preserve" text-anchor="start" x="3085.75" y="-210.7" font-family="Helvetica,sans-Serif" font-size="14.00">gini = 0.522</text>
<text xml:space="preserve" text-anchor="start" x="3076.38" y="-194.95" font-family="Helvetica,sans-Serif" font-size="14.00">samples = 101</text>
<text xml:space="preserve" text-anchor="start" x="2997.62" y="-179.2" font-family="Helvetica,sans-Serif" font-size="14.00">value = [0.0, 0.0, 55.0, 2.0, 0.0, 1.0, 43.0]</text>
<text xml:space="preserve" text-anchor="start" x="3052.38" y="-163.45" font-family="Helvetica,sans-Serif" font-size="14.00">class = Obesity Type_I</text>
</g>
<!-- 24&#45;&gt;25 -->
<g id="edge25" class="edge">
<title>24&#45;&gt;25</title>
<path fill="none" stroke="black" d="M3121,-329.48C3121,-307.07 3121,-279.36 3121,-255.46"/>
<polygon fill="black" stroke="black" points="3124.5,-255.58 3121,-245.58 3117.5,-255.58 3124.5,-255.58"/>
</g>
<!-- 28 -->
<g id="node29" class="node">
<title>28</title>
<path fill="#41e654" stroke="black" d="M3557,-243.75C3557,-243.75 3397,-243.75 3397,-243.75 3391,-243.75 3385,-237.75 3385,-231.75 3385,-231.75 3385,-169 3385,-169 3385,-163 3391,-157 3397,-157 3397,-157 3557,-157 3557,-157 3563,-157 3569,-163 3569,-169 3569,-169 3569,-231.75 3569,-231.75 3569,-237.75 3563,-243.75 3557,-243.75"/>
<text xml:space="preserve" text-anchor="start" x="3440.62" y="-226.45" font-family="Helvetica,sans-Serif" font-size="14.00">fcvc ≤ 2.782</text>
<text xml:space="preserve" text-anchor="start" x="3441.75" y="-210.7" font-family="Helvetica,sans-Serif" font-size="14.00">gini = 0.079</text>
<text xml:space="preserve" text-anchor="start" x="3432.38" y="-194.95" font-family="Helvetica,sans-Serif" font-size="14.00">samples = 296</text>
<text xml:space="preserve" text-anchor="start" x="3393" y="-179.2" font-family="Helvetica,sans-Serif" font-size="14.00">value = [0, 0, 284, 1, 2, 3, 6]</text>
<text xml:space="preserve" text-anchor="start" x="3408.38" y="-163.45" font-family="Helvetica,sans-Serif" font-size="14.00">class = Obesity Type_I</text>
</g>
<!-- 24&#45;&gt;28 -->
<g id="edge28" class="edge">
<title>24&#45;&gt;28</title>
<path fill="none" stroke="black" d="M3210.37,-329.26C3261.25,-304.85 3325.1,-274.23 3377.56,-249.07"/>
<polygon fill="black" stroke="black" points="3379.03,-252.25 3386.53,-244.77 3376,-245.94 3379.03,-252.25"/>
</g>
<!-- 26 -->
<g id="node27" class="node">
<title>26</title>
<path fill="#ec71a8" stroke="black" d="M3110.25,-71C3110.25,-71 2951.75,-71 2951.75,-71 2945.75,-71 2939.75,-65 2939.75,-59 2939.75,-59 2939.75,-12 2939.75,-12 2939.75,-6 2945.75,0 2951.75,0 2951.75,0 3110.25,0 3110.25,0 3116.25,0 3122.25,-6 3122.25,-12 3122.25,-12 3122.25,-59 3122.25,-59 3122.25,-65 3116.25,-71 3110.25,-71"/>
<text xml:space="preserve" text-anchor="start" x="2999.5" y="-53.7" font-family="Helvetica,sans-Serif" font-size="14.00">gini = 0.37</text>
<text xml:space="preserve" text-anchor="start" x="2990.12" y="-37.95" font-family="Helvetica,sans-Serif" font-size="14.00">samples = 48</text>
<text xml:space="preserve" text-anchor="start" x="2950.75" y="-22.2" font-family="Helvetica,sans-Serif" font-size="14.00">value = [0, 0, 9, 1, 0, 1, 37]</text>
<text xml:space="preserve" text-anchor="start" x="2947.75" y="-6.45" font-family="Helvetica,sans-Serif" font-size="14.00">class = Overweight Level_II</text>
</g>
<!-- 25&#45;&gt;26 -->
<g id="edge26" class="edge">
<title>25&#45;&gt;26</title>
<path fill="none" stroke="black" d="M3097.35,-156.58C3084.56,-133.43 3068.77,-104.85 3055.8,-81.38"/>
<polygon fill="black" stroke="black" points="3058.88,-79.72 3050.98,-72.66 3052.75,-83.1 3058.88,-79.72"/>
</g>
<!-- 27 -->
<g id="node28" class="node">
<title>27</title>
<path fill="#56e968" stroke="black" d="M3330.25,-71C3330.25,-71 3177.75,-71 3177.75,-71 3171.75,-71 3165.75,-65 3165.75,-59 3165.75,-59 3165.75,-12 3165.75,-12 3165.75,-6 3171.75,0 3177.75,0 3177.75,0 3330.25,0 3330.25,0 3336.25,0 3342.25,-6 3342.25,-12 3342.25,-12 3342.25,-59 3342.25,-59 3342.25,-65 3336.25,-71 3330.25,-71"/>
<text xml:space="preserve" text-anchor="start" x="3218.75" y="-53.7" font-family="Helvetica,sans-Serif" font-size="14.00">gini = 0.234</text>
<text xml:space="preserve" text-anchor="start" x="3213.12" y="-37.95" font-family="Helvetica,sans-Serif" font-size="14.00">samples = 53</text>
<text xml:space="preserve" text-anchor="start" x="3173.75" y="-22.2" font-family="Helvetica,sans-Serif" font-size="14.00">value = [0, 0, 46, 1, 0, 0, 6]</text>
<text xml:space="preserve" text-anchor="start" x="3185.38" y="-6.45" font-family="Helvetica,sans-Serif" font-size="14.00">class = Obesity Type_I</text>
</g>
<!-- 25&#45;&gt;27 -->
<g id="edge27" class="edge">
<title>25&#45;&gt;27</title>
<path fill="none" stroke="black" d="M3155.94,-156.58C3175.19,-133.01 3199.02,-103.82 3218.38,-80.13"/>
<polygon fill="black" stroke="black" points="3220.98,-82.47 3224.6,-72.51 3215.56,-78.04 3220.98,-82.47"/>
</g>
<!-- 29 -->
<g id="node30" class="node">
<title>29</title>
<path fill="#3de550" stroke="black" d="M3557,-71C3557,-71 3397,-71 3397,-71 3391,-71 3385,-65 3385,-59 3385,-59 3385,-12 3385,-12 3385,-6 3391,0 3397,0 3397,0 3557,0 3557,0 3563,0 3569,-6 3569,-12 3569,-12 3569,-59 3569,-59 3569,-65 3563,-71 3557,-71"/>
<text xml:space="preserve" text-anchor="start" x="3441.75" y="-53.7" font-family="Helvetica,sans-Serif" font-size="14.00">gini = 0.036</text>
<text xml:space="preserve" text-anchor="start" x="3432.38" y="-37.95" font-family="Helvetica,sans-Serif" font-size="14.00">samples = 276</text>
<text xml:space="preserve" text-anchor="start" x="3393" y="-22.2" font-family="Helvetica,sans-Serif" font-size="14.00">value = [0, 0, 271, 0, 0, 1, 4]</text>
<text xml:space="preserve" text-anchor="start" x="3408.38" y="-6.45" font-family="Helvetica,sans-Serif" font-size="14.00">class = Obesity Type_I</text>
</g>
<!-- 28&#45;&gt;29 -->
<g id="edge29" class="edge">
<title>28&#45;&gt;29</title>
<path fill="none" stroke="black" d="M3477,-156.58C3477,-133.84 3477,-105.87 3477,-82.65"/>
<polygon fill="black" stroke="black" points="3480.5,-82.85 3477,-72.85 3473.5,-82.85 3480.5,-82.85"/>
</g>
<!-- 30 -->
<g id="node31" class="node">
<title>30</title>
<path fill="#86ef92" stroke="black" d="M3776.25,-71C3776.25,-71 3623.75,-71 3623.75,-71 3617.75,-71 3611.75,-65 3611.75,-59 3611.75,-59 3611.75,-12 3611.75,-12 3611.75,-6 3617.75,0 3623.75,0 3623.75,0 3776.25,0 3776.25,0 3782.25,0 3788.25,-6 3788.25,-12 3788.25,-12 3788.25,-59 3788.25,-59 3788.25,-65 3782.25,-71 3776.25,-71"/>
<text xml:space="preserve" text-anchor="start" x="3664.75" y="-53.7" font-family="Helvetica,sans-Serif" font-size="14.00">gini = 0.545</text>
<text xml:space="preserve" text-anchor="start" x="3659.12" y="-37.95" font-family="Helvetica,sans-Serif" font-size="14.00">samples = 20</text>
<text xml:space="preserve" text-anchor="start" x="3619.75" y="-22.2" font-family="Helvetica,sans-Serif" font-size="14.00">value = [0, 0, 13, 1, 2, 2, 2]</text>
<text xml:space="preserve" text-anchor="start" x="3631.38" y="-6.45" font-family="Helvetica,sans-Serif" font-size="14.00">class = Obesity Type_I</text>
</g>
<!-- 28&#45;&gt;30 -->
<g id="edge30" class="edge">
<title>28&#45;&gt;30</title>
<path fill="none" stroke="black" d="M3535.59,-156.58C3568.85,-132.29 3610.3,-102.02 3643.25,-77.95"/>
<polygon fill="black" stroke="black" points="3645.07,-80.95 3651.08,-72.23 3640.94,-75.3 3645.07,-80.95"/>
</g>
</g>
</svg>
